{"title":"House Party Tonight s the Night (2013) [XviD - Italian English A","uid":11344238,"size":1711419392,"categoryP":"video","categoryS":"movies","magnet":"?xt=urn:btih:ba041bb2fac70edcaa1d0d75b8d4ceb4cf985bf6&amp;dn=House+Party+Tonight+s+the+Night+%282013%29+%5BXviD+-+Italian+English+A&amp;tr=udp%3A%2F%2Ftracker.openbittorrent.com%3A80&amp;tr=udp%3A%2F%2Fopen.demonii.com%3A1337&amp;tr=udp%3A%2F%2Ftracker.coppersurfer.tk%3A6969&amp;tr=udp%3A%2F%2Fexodus.desync.com%3A6969","seeders":7,"leechers":1,"uploader":"robbyrs4","files":1,"time":1414838045,"description":"House Party Tonight s the Night (2013) [XviD - Italian English Ac3 5.1]  MIRCrew\n\n\n\n[center][color=red][b][img]http://s19.postimg.org/mqmhlwtlf/Mircrew_original_red_skull.png[/img]\n\n[u]NO FOUND ONLY ORIGINAL RELEASE[/u]\n\nHouse Party Tonight's the Night (2013)\n\n[img]http://s22.postimg.org/8j2i0bakh/image.jpg[/img]\n\n\n[URL=http://www.imdb.com/title/tt2631862/][IMG]http://www.userlogos.org/files/logos/Sucka/imdb_new.png[/IMG][/URL]  \n\n[img]http://imageshack.us/a/img534/6946/zcu.gif[/img]\n\n\nDirected by \tReginald Hudlin\nProduced by \tGerald T. Olson\nWarrington Hudlin\nWritten by \tReginald Hudlin\nCinematography \tPeter Deming\nEdited by \tEarl Watson\nDistributed by \tNew Line Cinema\nRelease dates \tMarch 9, 1990\nRunning time \t102 minutes\nCountry \tUnited States\nLanguage \tEnglish\n\n[img]http://imageshack.us/a/img4/8946/u96.gif[/img]\n\n\nChristopher &quot;Kid&quot; Reid\nRobin Harris\nChristopher &quot;Play&quot; Martin\nMusic by \tLenny White\nMarcus Miller\n\n\n[img]http://imageshack.us/a/img844/6546/cupz.gif[/img]. \n\nChris sta per iniziare l'avventura del college. Il problema e' che deve lasciare il suo migliore amico e la ragazza per cui ha un'irrimediabile cotta. L'unica soluzione e' organizzare un'ultima festa. Ma, quello che dovrebbe essere un semplice raduno tra amici, ben presto si trasforma in un epico disastro.........\n\n[img]http://imageshack.us/a/img202/6180/4e6.gif[/img]\n\nChris is ready to head to college. But he'll leave his best friend and the girl he's had a crush on since 2nd grade. So he throws one last party that turns into a hilarious disaster.............\n &lt;a href=&quot;\nhttp://s22.postimg.org/wdvoyog8x/vlcsnap_2014_10_31_17h28m17s58.png&quot; rel=&quot;nofollow&quot; target=&quot;_NEW&quot;&gt;\nhttp://s22.postimg.org/wdvoyog8x/vlcsnap_2014_10_31_17h28m17s58.png&lt;/a&gt;\n &lt;a href=&quot;\nhttp://s22.postimg.org/loi06f4g1/vlcsnap_2014_10_31_17h29m18s174.png&quot; rel=&quot;nofollow&quot; target=&quot;_NEW&quot;&gt;\nhttp://s22.postimg.org/loi06f4g1/vlcsnap_2014_10_31_17h29m18s174.png&lt;/a&gt;\n &lt;a href=&quot;\nhttp://s22.postimg.org/bfpj0lge9/vlcsnap_2014_10_31_17h30m27s83.png&quot; rel=&quot;nofollow&quot; target=&quot;_NEW&quot;&gt;\nhttp://s22.postimg.org/bfpj0lge9/vlcsnap_2014_10_31_17h30m27s83.png&lt;/a&gt;\n\n\n[img]http://imageshack.us/a/img571/2166/an4p.gif[/img]\n\n\n[spoiler]\n\nGeneral\nComplete name                            : House Party Tonight's the Night (2013).ita.eng.MIRCrewHouse Party Tonight's the Night (2013).ita.eng.MIRCrew.avi\nFormat                                   : AVI\nFormat/Info                              : Audio Video Interleave\nFile size                                : 1.59 GiB\nDuration                                 : 1h 34mn\nOverall bit rate                         : 2 412 Kbps\nWriting application                      : VirtualDubMod 1.5.4.1 (build 2178/release)\nWriting library                          : VirtualDubMod build 2178/release\n\nVideo\nID                                       : 0\nFormat                                   : MPEG-4 Visual\nFormat profile                           : Simple@L3\nFormat settings, BVOP                    : No\nFormat settings, QPel                    : No\nFormat settings, GMC                     : No warppoints\nFormat settings, Matrix                  : Default (H.263)\nCodec ID                                 : XVID\nCodec ID/Hint                            : XviD\nDuration                                 : 1h 34mn\nBit rate                                 : 1 502 Kbps\nWidth                                    : 720 pixels\nHeight                                   : 404 pixels\nDisplay aspect ratio                     : 16:9\nFrame rate                               : 23.976 fps\nColor space                              : YUV\nChroma subsampling                       : 4:2:0\nBit depth                                : 8 bits\nScan type                                : Progressive\nCompression mode                         : Lossy\nBits/(Pixel*Frame)                       : 0.215\nStream size                              : 1 016 MiB (62%)\nWriting library                          : XviD 65\n\nAudio #1\nID                                       : 1\nFormat                                   : AC-3\nFormat/Info                              : Audio Coding 3\nMode extension                           : CM (complete main)\nCodec ID                                 : 2000\nDuration                                 : 1h 34mn\nBit rate mode                            : Constant\nBit rate                                 : 448 Kbps\nChannel(s)                               : 6 channels\nChannel positions                        : Front: L C R, Side: L R, LFE\nSampling rate                            : 48.0 KHz\nBit depth                                : 16 bits\nCompression mode                         : Lossy\nStream size                              : 303 MiB (19%)\nAlignment                                : Split accross interleaves\nInterleave, duration                     : 42 ms (1.00 video frame)\nInterleave, preload duration             : 500 ms\n\nAudio #2\nID                                       : 2\nFormat                                   : AC-3\nFormat/Info                              : Audio Coding 3\nMode extension                           : CM (complete main)\nCodec ID                                 : 2000\nDuration                                 : 1h 34mn\nBit rate mode                            : Constant\nBit rate                                 : 448 Kbps\nChannel(s)                               : 6 channels\nChannel positions                        : Front: L C R, Side: L R, LFE\nSampling rate                            : 48.0 KHz\nBit depth                                : 16 bits\nCompression mode                         : Lossy\nStream size                              : 303 MiB (19%)\nAlignment                                : Split accross interleaves\nInterleave, duration                     : 42 ms (1.00 video frame)\nInterleave, preload duration             : 500 ms\n\n\n\n\n\n[/spoiler]\n\n[/color][/b][/center]","torrent":{"xt":"urn:btih:ba041bb2fac70edcaa1d0d75b8d4ceb4cf985bf6","amp;dn":"House+Party+Tonight+s+the+Night+%282013%29+%5BXviD+-+Italian+English+A","amp;tr":["udp%3A%2F%2Ftracker.openbittorrent.com%3A80","udp%3A%2F%2Fopen.demonii.com%3A1337","udp%3A%2F%2Ftracker.coppersurfer.tk%3A6969","udp%3A%2F%2Fexodus.desync.com%3A6969"],"infoHash":"ba041bb2fac70edcaa1d0d75b8d4ceb4cf985bf6","infoHashBuffer":{"type":"Buffer","data":[186,4,27,178,250,199,14,220,170,29,13,117,184,212,206,180,207,152,91,246]},"announce":[],"urlList":[]}}